<svg xmlns="http://www.w3.org/2000/svg" width="8" height="17" fill="none"><path fill="#01353E" d="M6.4 11.7c0-.5-.2-1-.5-1.3-.3-.4-.8-.7-1.5-1a5 5 0 0 1-2.3-1.5c-.5-.7-.7-1.4-.7-2.4s.2-1.7.7-2.3c.5-.6 1.1-1 1.9-1.1V0h1.2v2c.9.1 1.5.5 2 1.2.4.7.6 1.7.6 2.8H6.3c0-.8-.2-1.4-.5-2-.3-.4-.7-.7-1.2-.7s-1 .2-1.2.6c-.3.3-.5.8-.5 1.5 0 .6.2 1 .5 1.4.3.4.8.7 1.5 1a5 5 0 0 1 2.3 1.5c.5.6.7 1.3.7 2.3 0 1-.2 1.7-.7 2.3-.5.7-1.2 1-2.1 1.1v1.7H3.8v-1.7a3 3 0 0 1-2-1.2c-.6-.6-.8-1.5-.8-2.7h1.5c0 .8.2 1.5.5 2 .3.3.8.6 1.4.6.6 0 1-.2 1.4-.6.4-.3.6-.9.6-1.5Z"/></svg>