<svg xmlns="http://www.w3.org/2000/svg" width="200" height="15" fill="none"><path fill="#00B2A0" d="M194.607 1.23264c-3.274 3.06632-4.406 5.81431-11.419 7.31304-8.633 1.84632-17.226-2.55895-21.48-6.17097-1.468-1.24666-5.028-1.486382-6.399 0-6.009 6.51528-19.318 4.9243-24.997-1.3636-1.396-1.5468-6.117-1.270698-6.697.49893-3.191 9.74726-17.519 10.77886-27.1143 3.71401 1.0473-1.90215-4.4161-3.1969-5.9056-1.33502-8.0549 10.07147-23.7807 8.94627-32.908-.04157-1.5841-1.5598-5.1329-1.01279-6.1563.45865C44.1129 14.9759 32.5594 9.90019 26.076 2.55597c-1.2627-1.43117-4.864-.9355-5.6252.41901-3.5431 6.30804-9.3803 7.48582-19.21421 9.11772-1.851905.308-1.565858 2.14.47066 1.9853C12.9748 13.2218 19.1288 12.0791 23.734 7.29576 33.1953 15.7177 46.4036 17.438 55.2665 8.57622c11.4921 8.20048 29.9529 9.13528 39.0996-.62107C104.526 15.8334 121.565 15.4455 128.388 6.8605c8.802 5.9189 21.614 6.7505 30.478.12669 13.191 7.56051 40.17 9.25291 41.131-4.92041.12-1.69037-3.942-2.191243-5.39-.83414Z"/></svg>