<svg xmlns="http://www.w3.org/2000/svg" width="247" height="15" fill="none"><path fill="#00B2A0" d="M240.34 1.23264c-4.044 3.06632-5.442 5.81431-14.103 7.31304-10.661 1.84632-21.274-2.55895-26.527-6.17097-1.813-1.24666-6.21-1.486382-7.903 0-7.422 6.51528-23.858 4.9243-30.871-1.3636-1.724-1.5468-7.555-1.270698-8.272.49893-3.941 9.74726-21.635 10.77886-33.486 3.71401 1.294-1.90215-5.454-3.1969-7.293-1.33502-9.948 10.07147-29.3692 8.94627-40.6414-.04157-1.9564-1.5598-6.3392-1.01279-7.6031.45865-9.161 10.66979-23.4297 5.59408-31.4367-1.75014-1.5594-1.43117-6.0069-.9355-6.9471.41901C20.881 9.28302 13.672 10.4608 1.52718 12.0927c-2.287094.308-1.933826 2.14.58128 1.9853 13.91544-.8562 21.51564-1.9989 27.20314-6.78224C40.9962 15.7177 57.3084 17.438 68.2541 8.57622c14.1927 8.20048 36.9919 9.13528 48.2879-.62107 12.548 7.87825 33.59 7.49035 42.017-1.09465 10.871 5.9189 26.693 6.7505 37.64.12669 16.291 7.56051 49.61 9.25291 50.798-4.92041.148-1.69037-4.869-2.191243-6.657-.83414Z"/></svg>