<svg xmlns="http://www.w3.org/2000/svg" width="293" height="15" fill="none"><path fill="#00B2A0" d="M285.099 1.23264c-4.796 3.06632-6.454 5.81431-16.729 7.31304-12.647 1.84632-25.235-2.55895-31.468-6.17097-2.15-1.24666-7.366-1.486382-9.374 0-8.804 6.51528-28.301 4.9243-36.62-1.3636-2.046-1.5468-8.963-1.270698-9.812.49893-4.675 9.74726-25.665 10.77886-39.723 3.71401 1.535-1.90215-6.469-3.1969-8.651-1.33502-11.801 10.07147-34.8389 8.94627-48.2104-.04157-2.3207-1.5598-7.5197-1.01279-9.019.45865C64.6255 14.9759 47.6995 9.90019 38.2013 2.55597c-1.8498-1.43117-7.1257-.9355-8.2409.41901-5.1907 6.30804-13.7422 7.48582-28.1488 9.11772-2.713036.308-2.293977 2.14.68953 1.9853 16.50697-.8562 25.52257-1.9989 32.26927-6.78224C48.6311 15.7177 67.9813 17.438 80.9654 8.57622c16.8359 8.20048 43.8806 9.13528 57.2806-.62107 14.885 7.87825 39.846 7.49035 49.842-1.09465 12.895 5.9189 31.665 6.7505 44.65.12669 19.326 7.56051 58.849 9.25291 60.258-4.92041.176-1.69037-5.775-2.191243-7.897-.83414Z"/></svg>