<svg xmlns="http://www.w3.org/2000/svg" width="20" height="69" fill="none"><path fill="#fff" d="M19.8372 43.7682c-.7585-14.0254-3.7262-29.9504-8.4261-41.99698.3134-.72652-.1661-1.990301-.7952-1.7385729C3.22778 2.98797 1.14916 23.5694.389332 33.3937-.448886 44.2302-.682241 64.7384 7.76561 68.3159c3.48099 1.4747 7.61329-.4237 9.83459-5.0213 2.5914-5.3635 2.5851-13.0917 2.237-19.5264Zm-2.9966-9.7387c-2.2813-.563-5.4615.5148-6.8139.8147-.54739.1213-1.08045.2686-1.61396.416.06294-10.2021.90115-20.4781 1.74616-30.57922 1.9955 6.18992 5.0128 17.87672 6.6817 29.34852Zm-1.2361 3.6951c-.0713.2043-.1347.3902-.1861.5541-.1645-.2028-.3256-.4178-.4912-.6232.2249.0213.451.0444.6773.0691ZM2.38206 34.4462c.5192-8.5459 1.95456-23.3886 6.60054-30.01916C7.02032 14.0989 6.06077 25.0783 6.15325 35.9742c-.12634.0456-.24972.1044-.3756.1518-.22449-.1147-.47534-.1077-.71665.0937-.1152.0967-.21927.2227-.33084.3293-.84344.3568-1.68166.7408-2.51238 1.1851.04885-1.2384.1077-2.3559.16428-3.2879Zm6.52852 30.7854c-4.68553-.488-6.26858-8.7245-6.67962-16.944.11134.0981.23154.1624.35651.1885.02567.061.07294.0926.12452.039.01113-.0114.02317-.0203.03453-.032.21836-.0177.44127-.1577.64099-.4822.0509-.083.10225-.1679.15338-.2521.94592-.7945 1.95478-1.3714 2.99136-1.8072.47081 6.7562 1.36356 13.3125 2.71098 19.3099-.11134-.0078-.21882-.0081-.33265-.0199Zm2.39132-.1106c-.008-.0445-.0114-.0864-.0219-.1323C9.78061 58.521 8.97851 51.911 8.6236 45.2338c.57327-.1555 1.14701-.2903 1.7153-.4087 2.6337-.5486 5.0781.4822 7.6244.3172.4983 10.3627-.9982 18.7564-6.6614 19.9787Z"/></svg>